<?xml version="1.0" standalone="no"?><!DOCTYPE svg PUBLIC "-//W3C//DTD SVG 1.1//EN" "http://www.w3.org/Graphics/SVG/1.1/DTD/svg11.dtd"><svg height="2721" node-id="1" sillyvg="true" template-height="2721" template-width="3861" version="1.1" viewBox="0 0 3861 2721" width="3861" xmlns="http://www.w3.org/2000/svg" xmlns:xlink="http://www.w3.org/1999/xlink"><defs node-id="177"><linearGradient gradientUnits="objectBoundingBox" id="paint0_linear_400_12" node-id="54" spreadMethod="pad" x1="404.332" x2="404.332" y1="759.469" y2="438.424"><stop offset="0" stop-color="#ffffff" stop-opacity="0.1"></stop><stop offset="1" stop-color="#d9e9ff"></stop></linearGradient><linearGradient gradientUnits="objectBoundingBox" id="paint1_linear_400_12" node-id="57" spreadMethod="pad" x1="2723.24" x2="2723.24" y1="731.782" y2="456.018"><stop offset="0" stop-color="#ffffff" stop-opacity="0.1"></stop><stop offset="0.14" stop-color="#f8fbff" stop-opacity="0.27"></stop><stop offset="0.37" stop-color="#edf5ff" stop-opacity="0.52"></stop><stop offset="0.58" stop-color="#e4f0ff" stop-opacity="0.73"></stop><stop offset="0.76" stop-color="#deecff" stop-opacity="0.88"></stop><stop offset="0.91" stop-color="#daeaff" stop-opacity="0.97"></stop><stop offset="1" stop-color="#d9e9ff"></stop></linearGradient><linearGradient gradientUnits="objectBoundingBox" id="paint2_linear_400_12" node-id="65" spreadMethod="pad" x1="3353.86" x2="3353.86" y1="607.017" y2="-0.492787"><stop offset="0" stop-color="#ffffff" stop-opacity="0.1"></stop><stop offset="0.09" stop-color="#fefeff" stop-opacity="0.13"></stop><stop offset="0.23" stop-color="#fbfcff" stop-opacity="0.21"></stop><stop offset="0.4" stop-color="#f5f9ff" stop-opacity="0.33"></stop><stop offset="0.59" stop-color="#eef5ff" stop-opacity="0.51"></stop><stop offset="0.79" stop-color="#e4efff" stop-opacity="0.74"></stop><stop offset="1" stop-color="#d9e9ff"></stop></linearGradient><linearGradient gradientUnits="objectBoundingBox" id="paint3_linear_400_12" node-id="73" spreadMethod="pad" x1="1908" x2="1908" y1="2659.63" y2="1452.22"><stop offset="0" stop-color="#ffffff" stop-opacity="0.1"></stop><stop offset="0.13" stop-color="#fbfdff" stop-opacity="0.19"></stop><stop offset="0.41" stop-color="#f1f7ff" stop-opacity="0.43"></stop><stop offset="0.81" stop-color="#e1eeff" stop-opacity="0.82"></stop><stop offset="1" stop-color="#d9e9ff"></stop></linearGradient><linearGradient gradientUnits="objectBoundingBox" id="paint4_linear_400_12" node-id="79" spreadMethod="pad" x1="931.89" x2="882.696" y1="1885.85" y2="1937.74"><stop offset="0" stop-color="#003a8c"></stop><stop offset="1" stop-color="#5792f0"></stop></linearGradient><linearGradient gradientUnits="objectBoundingBox" id="paint5_linear_400_12" node-id="82" spreadMethod="pad" x1="814.117" x2="764.922" y1="1885.85" y2="1937.74"><stop offset="0" stop-color="#003a8c"></stop><stop offset="1" stop-color="#5792f0"></stop></linearGradient><linearGradient gradientUnits="objectBoundingBox" id="paint6_linear_400_12" node-id="85" spreadMethod="pad" x1="831" x2="831" y1="1168.98" y2="1216"><stop offset="0" stop-color="#ffcda5"></stop><stop offset="1" stop-color="#ffe8d1"></stop></linearGradient><linearGradient gradientUnits="objectBoundingBox" id="paint7_linear_400_12" node-id="88" spreadMethod="pad" x1="873" x2="746.5" y1="1392" y2="1316"><stop offset="0" stop-color="#ffffff"></stop><stop offset="1" stop-color="#ffffff" stop-opacity="0"></stop></linearGradient><linearGradient gradientUnits="objectBoundingBox" id="paint8_linear_400_12" node-id="91" spreadMethod="pad" x1="1964.03" x2="2228.95" y1="1778.52" y2="1778.52"><stop offset="0" stop-color="#eeeeee"></stop><stop offset="0.03" stop-color="#dddddd"></stop><stop offset="1" stop-color="#d8d8d8"></stop></linearGradient><linearGradient gradientUnits="objectBoundingBox" id="paint9_linear_400_12" node-id="95" spreadMethod="pad" x1="1964.03" x2="2228.95" y1="1778.52" y2="1778.52"><stop offset="0" stop-color="#eeeeee"></stop><stop offset="0.03" stop-color="#dddddd"></stop><stop offset="1" stop-color="#d8d8d8"></stop></linearGradient><linearGradient gradientUnits="objectBoundingBox" id="paint10_linear_400_12" node-id="99" spreadMethod="pad" x1="2455.66" x2="2745.78" y1="713.597" y2="713.597"><stop offset="0" stop-color="#eeeeee"></stop><stop offset="0.03" stop-color="#b4d7fe"></stop><stop offset="1" stop-color="#b0d3fa"></stop></linearGradient><linearGradient gradientUnits="objectBoundingBox" id="paint11_linear_400_12" node-id="103" spreadMethod="pad" x1="2458.27" x2="2671.08" y1="694.991" y2="694.991"><stop offset="0" stop-color="#b2d5fc"></stop><stop offset="0.03" stop-color="#dddddd"></stop><stop offset="1" stop-color="#a8d2ff"></stop></linearGradient><linearGradient gradientUnits="objectBoundingBox" id="paint12_linear_400_12" node-id="107" spreadMethod="pad" x1="2516.45" x2="2678.36" y1="711.061" y2="716.607"><stop offset="0" stop-color="#afd5fe"></stop><stop offset="0.0524188" stop-color="#99cafd"></stop><stop offset="1" stop-color="#b5d4f6"></stop></linearGradient><linearGradient gradientUnits="objectBoundingBox" id="paint13_linear_400_12" node-id="111" spreadMethod="pad" x1="2524.28" x2="2757.07" y1="722.152" y2="722.152"><stop offset="0" stop-color="#eeeeee"></stop><stop offset="0.03" stop-color="#b2d4f8"></stop><stop offset="1" stop-color="#b2d4fa"></stop></linearGradient><linearGradient gradientUnits="objectBoundingBox" id="paint14_linear_400_12" node-id="115" spreadMethod="pad" x1="2549.47" x2="2757.07" y1="721.918" y2="721.918"><stop offset="0" stop-color="#eeeeee"></stop><stop offset="0.03" stop-color="#dddddd"></stop><stop offset="1" stop-color="#d8d8d8"></stop></linearGradient><linearGradient gradientUnits="objectBoundingBox" id="paint15_linear_400_12" node-id="119" spreadMethod="pad" x1="1609.64" x2="2344.18" y1="1029.54" y2="1029.54"><stop offset="0" stop-color="#97c9fd"></stop><stop offset="0.268565" stop-color="#4199f3"></stop><stop offset="1" stop-color="#aad2fd"></stop></linearGradient><linearGradient gradientUnits="objectBoundingBox" id="paint16_linear_400_12" node-id="123" spreadMethod="pad" x1="1283.9" x2="1594" y1="1774.18" y2="1774.18"><stop offset="0" stop-color="#eeeeee"></stop><stop offset="0.03" stop-color="#dddddd"></stop><stop offset="1" stop-color="#d8d8d8"></stop></linearGradient><linearGradient gradientUnits="objectBoundingBox" id="paint17_linear_400_12" node-id="127" spreadMethod="pad" x1="1283.03" x2="1600.08" y1="1778.09" y2="1778.09"><stop offset="0" stop-color="#68aff7"></stop><stop offset="0.518306" stop-color="#6bb1f8"></stop><stop offset="1" stop-color="#6bb1f7"></stop></linearGradient><linearGradient gradientUnits="objectBoundingBox" id="paint18_linear_400_12" node-id="131" spreadMethod="pad" x1="1157.95" x2="1498.42" y1="1545.8" y2="1545.8"><stop offset="0" stop-color="#eeeeee"></stop><stop offset="1" stop-color="#d8d8d8"></stop></linearGradient><linearGradient gradientUnits="objectBoundingBox" id="paint19_linear_400_12" node-id="134" spreadMethod="pad" x1="1263.73" x2="1437.3" y1="1538.42" y2="1604.77"><stop offset="0" stop-color="#5fabf8"></stop><stop offset="1" stop-color="#6eb2f7"></stop></linearGradient><linearGradient gradientUnits="objectBoundingBox" id="paint20_linear_400_12" node-id="137" spreadMethod="pad" x1="1649" x2="2404.71" y1="212" y2="228.861"><stop offset="0" stop-color="#f0f9ff"></stop><stop offset="1" stop-color="#459ffb"></stop></linearGradient><linearGradient gradientUnits="objectBoundingBox" id="paint21_linear_400_12" node-id="140" spreadMethod="pad" x1="1031.99" x2="1762.51" y1="764.541" y2="764.541"><stop offset="0" stop-color="#96c5f4"></stop><stop offset="1" stop-color="#3f9cfa"></stop></linearGradient><linearGradient gradientUnits="objectBoundingBox" id="paint22_linear_400_12" node-id="143" spreadMethod="pad" x1="1124.82" x2="1304.83" y1="988.7" y2="1223"><stop offset="0" stop-color="#c4daf1"></stop><stop offset="1" stop-color="#5daaf8"></stop></linearGradient><linearGradient gradientUnits="objectBoundingBox" id="paint23_linear_400_12" node-id="146" spreadMethod="pad" x1="1189.5" x2="1641.5" y1="656.999" y2="743.499"><stop offset="0" stop-color="#c4daf1"></stop><stop offset="1" stop-color="#3497fb"></stop></linearGradient><linearGradient gradientUnits="objectBoundingBox" id="paint24_linear_400_12" node-id="149" spreadMethod="pad" x1="1287.37" x2="1504.96" y1="411.752" y2="411.752"><stop offset="0" stop-color="#87bdf5"></stop><stop offset="1" stop-color="#6ab2fd"></stop></linearGradient><linearGradient gradientUnits="objectBoundingBox" id="paint25_linear_400_12" node-id="152" spreadMethod="pad" x1="1302.14" x2="1672.33" y1="309.76" y2="318.332"><stop offset="0" stop-color="#97c9fd"></stop><stop offset="1" stop-color="#54a7fc"></stop></linearGradient><linearGradient gradientUnits="objectBoundingBox" id="paint26_linear_400_12" node-id="155" spreadMethod="pad" x1="1534.06" x2="1744.27" y1="216.384" y2="216.384"><stop offset="0" stop-color="#79bafd"></stop><stop offset="1" stop-color="#57a9fc"></stop></linearGradient><linearGradient gradientUnits="objectBoundingBox" id="paint27_linear_400_12" node-id="158" spreadMethod="pad" x1="1542.75" x2="1765.11" y1="212.242" y2="212.242"><stop offset="0" stop-color="#69b2fc"></stop><stop offset="1" stop-color="#54a7fc"></stop></linearGradient><linearGradient gradientUnits="objectBoundingBox" id="paint28_linear_400_12" node-id="161" spreadMethod="pad" x1="1561.86" x2="1771.19" y1="212.259" y2="212.259"><stop offset="0" stop-color="#eeeeee"></stop><stop offset="1" stop-color="#d8d8d8"></stop></linearGradient><linearGradient gradientUnits="objectBoundingBox" id="paint29_linear_400_12" node-id="164" spreadMethod="pad" x1="1567.07" x2="1772.06" y1="214.567" y2="214.567"><stop offset="0" stop-color="#eeeeee"></stop><stop offset="1" stop-color="#d8d8d8"></stop></linearGradient><linearGradient gradientUnits="objectBoundingBox" id="paint30_linear_400_12" node-id="167" spreadMethod="pad" x1="2608.47" x2="1356.13" y1="1661.43" y2="954.86"><stop offset="0" stop-color="#3497fc"></stop><stop offset="1" stop-color="#c0ddfc"></stop></linearGradient><linearGradient gradientUnits="objectBoundingBox" id="paint31_linear_400_12" node-id="170" spreadMethod="pad" x1="1248.04" x2="3196.39" y1="-2.22849" y2="2574.08"><stop offset="0" stop-color="#5792f0"></stop><stop offset="1" stop-color="#bfd4fa" stop-opacity="0"></stop></linearGradient><linearGradient gradientUnits="objectBoundingBox" id="paint32_linear_400_12" node-id="173" spreadMethod="pad" x1="2794" x2="3050.35" y1="1805" y2="2039.16"><stop offset="0" stop-color="#f7fbff"></stop><stop offset="1" stop-color="#2399ee"></stop></linearGradient></defs><path d="M 750.40 1504.40 L 767.70 1683.30 L 659.60 1671.40 L 750.40 1504.40 Z" fill="#e4efff" fill-rule="nonzero" node-id="424" stroke="none" target-height="178.90002" target-width="108.10004" target-x="659.6" target-y="1504.4"></path><path d="M 745.30 1504.40 L 857.10 1645.60 L 762.30 1683.30 L 745.30 1504.40 Z" fill="#f3f8ff" fill-rule="nonzero" node-id="426" stroke="none" target-height="178.90002" target-width="111.79999" target-x="745.3" target-y="1504.4"></path><path d="M 373.90 1549.10 L 395.00 1776.40 L 264.60 1761.30 L 373.90 1549.10 Z" fill="#e4efff" fill-rule="nonzero" node-id="428" stroke="none" target-height="227.30005" target-width="130.4" target-x="264.6" target-y="1549.1"></path><path d="M 376.40 1549.10 L 514.30 1728.80 L 397.50 1776.40 L 376.40 1549.10 Z" fill="#f3f8ff" fill-rule="nonzero" node-id="430" stroke="none" target-height="227.30005" target-width="137.9" target-x="376.4" target-y="1549.1"></path><path d="M 553.30 1392.60 L 588.80 1769.00 L 350.30 1745.50 L 553.30 1392.60 Z" fill="#e4efff" fill-rule="nonzero" node-id="432" stroke="none" target-height="376.40002" target-width="238.5" target-x="350.3" target-y="1392.6"></path><path d="M 547.80 1392.60 L 797.50 1688.40 L 583.30 1769.00 L 547.80 1392.60 Z" fill="#f3f8ff" fill-rule="nonzero" node-id="434" stroke="none" target-height="376.40002" target-width="249.70001" target-x="547.8" target-y="1392.6"></path><path d="M 623.20 565.40 L 621.20 556.10 L 618.60 547.10 L 615.60 538.40 L 612.10 530.00 L 608.20 521.80 L 603.80 513.90 L 598.90 506.30 L 593.70 499.10 L 588.10 492.10 L 582.10 485.60 L 575.70 479.40 L 569.00 473.50 L 562.00 468.10 L 554.70 463.10 L 547.10 458.50 L 539.30 454.30 L 531.20 450.60 L 522.90 447.40 L 514.30 444.60 L 505.50 442.40 L 496.70 440.60 L 487.60 439.40 L 478.40 438.80 L 469.00 438.60 L 458.90 438.90 L 449.00 439.80 L 439.20 441.30 L 429.50 443.40 L 420.00 446.10 L 410.70 449.40 L 401.60 453.30 L 392.70 457.70 L 384.20 462.70 L 375.90 468.20 L 367.90 474.30 L 360.30 480.90 L 347.60 475.90 L 334.40 472.30 L 321.00 470.10 L 307.40 469.40 L 298.70 469.60 L 290.20 470.30 L 281.90 471.60 L 273.80 473.50 L 265.80 476.00 L 258.10 478.90 L 250.60 482.40 L 243.40 486.40 L 236.40 490.80 L 229.80 495.60 L 223.50 500.90 L 217.60 506.70 L 212.00 512.80 L 206.90 519.30 L 202.20 526.10 L 197.90 533.40 L 194.10 540.90 L 190.90 548.70 L 188.10 556.80 L 185.80 565.30 L 179.20 567.00 L 172.80 569.20 L 166.70 571.70 L 160.80 574.60 L 155.10 577.90 L 149.60 581.50 L 144.50 585.50 L 139.60 589.80 L 135.00 594.40 L 130.70 599.30 L 126.80 604.50 L 123.20 609.90 L 119.90 615.60 L 117.00 621.40 L 114.50 627.50 L 112.40 633.80 L 110.60 640.20 L 109.40 646.70 L 108.50 653.50 L 108.10 660.40 L 108.50 667.10 L 109.30 673.70 L 110.60 680.00 L 112.20 686.20 L 114.10 692.20 L 117.20 699.60 L 120.70 706.60 L 124.70 713.30 L 129.20 719.60 L 134.20 725.60 L 139.50 731.20 L 145.30 736.30 L 151.50 741.00 L 158.00 745.20 L 164.80 748.90 L 171.90 752.00 L 179.40 754.70 L 185.50 756.30 L 191.70 757.60 L 198.00 758.50 L 204.50 759.00 L 211.20 759.00 L 597.40 759.00 L 604.10 759.00 L 610.70 758.50 L 617.00 757.60 L 623.20 756.40 L 629.30 754.70 L 636.80 752.10 L 643.90 748.90 L 650.70 745.20 L 657.20 741.00 L 663.40 736.30 L 669.20 731.20 L 674.60 725.70 L 679.50 719.70 L 684.00 713.30 L 688.00 706.70 L 691.50 699.60 L 694.60 692.30 L 696.50 686.20 L 698.10 680.00 L 699.30 673.70 L 700.20 667.10 L 700.60 660.40 L 700.20 653.50 L 699.30 646.80 L 698.00 640.20 L 696.30 633.80 L 694.20 627.60 L 691.70 621.50 L 688.80 615.70 L 685.60 610.00 L 682.00 604.60 L 678.10 599.40 L 673.80 594.60 L 669.20 589.90 L 664.40 585.60 L 659.20 581.70 L 653.80 578.00 L 648.10 574.70 L 642.30 571.80 L 636.10 569.30 L 629.80 567.10 L 623.20 565.40 Z" fill="url(#paint0_linear_400_12)" fill-rule="nonzero" node-id="436" stroke="none" target-height="320.4" target-width="592.5" target-x="108.1" target-y="438.6"></path><path d="M 2911.70 560.70 L 2907.80 554.90 L 2903.60 549.50 L 2899.10 544.30 L 2894.30 539.50 L 2889.20 534.90 L 2883.90 530.70 L 2878.40 526.80 L 2872.60 523.20 L 2866.60 520.10 L 2860.50 517.20 L 2854.20 514.80 L 2847.80 512.70 L 2841.20 511.00 L 2834.50 509.70 L 2827.70 508.80 L 2820.80 508.40 L 2816.60 502.30 L 2812.00 496.50 L 2807.20 491.10 L 2802.00 486.10 L 2796.50 481.30 L 2790.80 477.00 L 2784.90 473.00 L 2778.70 469.50 L 2772.20 466.30 L 2765.70 463.50 L 2758.90 461.20 L 2752.00 459.20 L 2745.00 457.70 L 2737.80 456.70 L 2730.60 456.10 L 2715.30 456.20 L 2707.60 456.90 L 2700.00 458.20 L 2692.40 459.90 L 2685.00 462.10 L 2677.80 464.80 L 2670.80 468.00 L 2664.00 471.70 L 2657.40 475.80 L 2651.10 480.40 L 2645.10 485.40 L 2639.30 490.80 L 2631.60 488.70 L 2623.70 487.10 L 2615.80 486.10 L 2607.80 485.80 L 2600.40 486.10 L 2593.20 486.90 L 2586.20 488.10 L 2579.40 489.80 L 2572.80 492.00 L 2566.40 494.50 L 2560.30 497.50 L 2554.50 500.80 L 2548.90 504.60 L 2543.60 508.70 L 2538.80 513.10 L 2534.20 517.80 L 2530.10 522.80 L 2526.30 528.10 L 2523.00 533.60 L 2520.10 539.30 L 2517.70 545.30 L 2515.80 551.50 L 2514.30 557.80 L 2513.40 564.30 L 2506.40 566.40 L 2499.70 568.90 L 2493.40 571.90 L 2487.40 575.40 L 2481.60 579.40 L 2476.30 583.90 L 2471.30 588.70 L 2466.70 593.90 L 2462.50 599.50 L 2458.80 605.30 L 2455.50 611.50 L 2452.80 618.00 L 2450.50 624.70 L 2448.80 631.60 L 2447.60 638.70 L 2447.00 646.00 L 2447.30 653.10 L 2448.30 660.00 L 2449.80 666.60 L 2451.90 673.10 L 2454.50 679.40 L 2457.60 685.40 L 2461.20 691.10 L 2465.30 696.60 L 2469.90 701.80 L 2474.80 706.60 L 2480.10 711.10 L 2485.80 715.20 L 2491.90 718.90 L 2498.20 722.20 L 2504.80 725.00 L 2511.70 727.40 L 2518.80 729.30 L 2526.10 730.60 L 2533.60 731.50 L 2541.40 731.80 L 2904.10 731.80 L 2912.00 731.50 L 2919.60 730.60 L 2927.00 729.30 L 2934.10 727.40 L 2941.10 725.00 L 2947.70 722.20 L 2954.00 718.90 L 2960.00 715.20 L 2965.70 711.10 L 2971.00 706.60 L 2975.90 701.80 L 2980.40 696.60 L 2984.50 691.10 L 2988.10 685.40 L 2991.10 679.40 L 2993.70 673.10 L 2995.80 666.60 L 2997.30 660.00 L 2998.20 653.10 L 2998.50 646.00 L 2998.30 639.30 L 2997.60 632.80 L 2996.30 626.40 L 2994.50 620.30 L 2992.20 614.20 L 2989.40 608.50 L 2986.10 602.90 L 2982.40 597.60 L 2978.30 592.60 L 2973.80 587.90 L 2968.90 583.50 L 2963.60 579.30 L 2958.10 575.60 L 2952.20 572.20 L 2946.10 569.30 L 2939.60 566.60 L 2933.00 564.50 L 2926.10 562.80 L 2919.10 561.50 L 2911.70 560.70 Z" fill="url(#paint1_linear_400_12)" fill-rule="nonzero" node-id="438" stroke="none" target-height="275.69998" target-width="551.5" target-x="2447" target-y="456.1"></path><path d="M 3710.20 192.80 L 3705.70 184.10 L 3700.90 175.80 L 3695.80 167.70 L 3690.30 159.90 L 3684.50 152.40 L 3678.40 145.10 L 3672.00 138.20 L 3665.40 131.60 L 3658.40 125.30 L 3651.20 119.30 L 3643.70 113.60 L 3636.00 108.30 L 3628.10 103.30 L 3620.00 98.70 L 3611.60 94.40 L 3603.10 90.50 L 3594.40 87.00 L 3585.50 83.90 L 3576.50 81.10 L 3567.30 78.70 L 3558.00 76.80 L 3548.60 75.30 L 3539.10 74.10 L 3529.50 73.50 L 3519.70 73.20 L 3508.40 73.50 L 3497.20 74.50 L 3486.10 76.00 L 3475.10 78.10 L 3464.30 80.80 L 3453.60 84.00 L 3443.10 87.80 L 3432.90 92.20 L 3422.80 97.10 L 3413.00 102.50 L 3403.50 108.50 L 3394.30 115.00 L 3388.60 104.60 L 3382.40 94.70 L 3375.80 85.30 L 3368.80 76.30 L 3361.20 67.70 L 3353.30 59.60 L 3345.00 52.00 L 3336.30 44.80 L 3327.20 38.10 L 3317.80 31.90 L 3308.20 26.30 L 3298.20 21.10 L 3288.00 16.50 L 3277.60 12.50 L 3266.90 9.00 L 3256.00 6.00 L 3245.00 3.60 L 3233.90 1.80 L 3222.60 0.70 L 3211.10 0.10 L 3199.70 0.10 L 3188.20 0.80 L 3176.60 2.10 L 3165.00 4.00 L 3153.40 6.70 L 3142.20 9.80 L 3131.30 13.60 L 3120.70 17.90 L 3110.40 22.80 L 3100.40 28.20 L 3090.80 34.10 L 3081.50 40.50 L 3072.60 47.40 L 3064.00 54.70 L 3055.90 62.40 L 3048.20 70.60 L 3041.00 79.10 L 3034.20 88.00 L 3027.90 97.30 L 3022.10 106.90 L 3016.80 116.90 L 3012.00 127.10 L 3007.70 137.60 L 3004.00 148.40 L 3000.90 159.40 L 2998.40 170.60 L 2996.50 182.10 L 2995.20 193.90 L 2985.20 197.30 L 2975.60 201.10 L 2966.30 205.30 L 2957.40 209.90 L 2948.70 214.90 L 2940.20 220.40 L 2932.00 226.20 L 2924.20 232.30 L 2916.70 238.80 L 2909.60 245.60 L 2902.70 252.70 L 2896.20 260.10 L 2890.10 267.80 L 2884.40 275.70 L 2879.00 283.90 L 2874.00 292.40 L 2869.40 301.10 L 2865.20 309.90 L 2861.40 319.00 L 2858.10 328.30 L 2855.10 337.70 L 2852.60 347.30 L 2850.60 357.00 L 2849.00 366.80 L 2847.80 376.90 L 2847.20 386.90 L 2847.00 397.00 L 2847.30 407.20 L 2848.10 417.40 L 2849.50 427.90 L 2851.30 438.20 L 2853.60 448.20 L 2856.40 458.10 L 2859.60 467.60 L 2863.20 477.00 L 2867.30 486.20 L 2871.80 495.10 L 2876.70 503.80 L 2881.90 512.20 L 2887.50 520.30 L 2893.50 528.10 L 2899.90 535.60 L 2906.50 542.80 L 2913.50 549.70 L 2920.80 556.30 L 2928.40 562.50 L 2936.30 568.40 L 2944.40 573.90 L 2952.80 579.00 L 2961.50 583.80 L 2970.40 588.10 L 2979.40 592.00 L 2988.70 595.50 L 2998.20 598.60 L 3008.00 601.30 L 3017.80 603.40 L 3027.70 605.20 L 3037.90 606.40 L 3048.20 607.20 L 3058.70 607.40 L 3648.40 607.40 L 3659.00 607.20 L 3669.30 606.40 L 3679.50 605.20 L 3689.50 603.50 L 3699.40 601.30 L 3709.20 598.70 L 3718.70 595.60 L 3728.10 592.10 L 3737.20 588.10 L 3746.10 583.80 L 3754.90 579.00 L 3763.30 573.90 L 3771.50 568.30 L 3779.40 562.40 L 3787.00 556.20 L 3794.40 549.60 L 3801.40 542.60 L 3808.00 535.40 L 3814.40 527.80 L 3820.40 519.90 L 3826.10 511.70 L 3831.30 503.30 L 3836.20 494.60 L 3840.60 485.60 L 3844.70 476.30 L 3848.30 466.90 L 3851.50 457.30 L 3854.20 447.40 L 3856.50 437.30 L 3858.30 426.90 L 3859.60 416.40 L 3860.40 406.10 L 3860.60 395.80 L 3860.40 385.70 L 3859.70 375.60 L 3858.50 365.50 L 3856.80 355.60 L 3854.70 345.90 L 3852.10 336.30 L 3849.10 326.90 L 3845.60 317.50 L 3841.70 308.50 L 3837.40 299.60 L 3832.70 290.90 L 3827.60 282.50 L 3822.10 274.20 L 3816.30 266.30 L 3810.10 258.70 L 3803.50 251.30 L 3796.50 244.20 L 3789.20 237.40 L 3781.60 231.00 L 3773.70 225.00 L 3765.50 219.20 L 3756.90 213.80 L 3748.10 208.90 L 3739.00 204.40 L 3729.60 200.20 L 3719.90 196.50 L 3709.90 193.20 L 3710.20 192.80 Z" fill="url(#paint2_linear_400_12)" fill-rule="nonzero" node-id="440" stroke="none" target-height="607.30005" target-width="1013.6001" target-x="2847" target-y="0.1"></path><path d="M 3816.00 2055.90 L 3815.70 2065.80 L 3815.00 2075.70 L 3813.70 2085.60 L 3811.90 2095.50 L 3809.60 2105.40 L 3806.80 2115.30 L 3803.40 2125.30 L 3799.50 2135.30 L 3794.60 2146.10 L 3789.10 2157.00 L 3782.90 2168.00 L 3775.90 2179.00 L 3768.30 2190.10 L 3759.90 2201.30 L 3750.60 2212.60 L 3741.50 2223.00 L 3731.60 2233.50 L 3721.00 2244.00 L 3709.70 2254.70 L 3697.50 2265.30 L 3684.60 2276.10 L 3670.80 2287.00 L 3655.10 2298.60 L 3638.50 2310.20 L 3620.80 2321.90 L 3602.00 2333.70 L 3582.10 2345.50 L 3561.10 2357.40 L 3540.70 2368.30 L 3519.30 2379.30 L 3496.80 2390.20 L 3473.30 2401.10 L 3448.60 2412.10 L 3422.80 2423.00 L 3397.80 2433.10 L 3371.80 2443.20 L 3344.80 2453.20 L 3316.70 2463.10 L 3287.50 2473.00 L 3257.20 2482.80 L 3195.30 2501.50 L 3163.20 2510.60 L 3130.20 2519.50 L 3096.30 2528.20 L 3054.40 2538.50 L 3011.30 2548.50 L 2967.10 2558.10 L 2921.70 2567.40 L 2876.60 2576.10 L 2830.50 2584.40 L 2783.40 2592.30 L 2735.30 2599.90 L 2687.40 2607.00 L 2638.70 2613.60 L 2589.20 2619.80 L 2538.80 2625.70 L 2488.60 2631.00 L 2437.80 2635.90 L 2386.30 2640.40 L 2334.20 2644.40 L 2282.20 2647.90 L 2229.70 2651.00 L 2176.70 2653.60 L 2123.30 2655.80 L 2069.90 2657.50 L 2016.30 2658.70 L 1962.30 2659.40 L 1908.00 2659.60 L 1853.70 2659.40 L 1799.70 2658.70 L 1746.10 2657.50 L 1692.70 2655.80 L 1639.30 2653.60 L 1586.30 2651.00 L 1533.80 2647.90 L 1481.80 2644.40 L 1429.70 2640.40 L 1378.20 2635.90 L 1327.40 2631.00 L 1277.20 2625.70 L 1226.80 2619.80 L 1177.30 2613.60 L 1128.60 2607.00 L 1080.70 2599.90 L 1032.60 2592.30 L 985.50 2584.40 L 939.40 2576.10 L 894.30 2567.40 L 848.90 2558.10 L 804.70 2548.50 L 761.60 2538.50 L 719.70 2528.20 L 685.80 2519.50 L 620.70 2501.50 L 558.80 2482.80 L 528.50 2473.00 L 499.30 2463.10 L 471.20 2453.20 L 444.20 2443.20 L 418.20 2433.10 L 393.20 2423.00 L 367.40 2412.10 L 342.70 2401.10 L 319.20 2390.20 L 296.70 2379.30 L 275.30 2368.30 L 254.90 2357.40 L 233.90 2345.50 L 214.00 2333.70 L 195.20 2321.90 L 177.50 2310.20 L 160.90 2298.60 L 145.20 2287.00 L 131.40 2276.10 L 118.50 2265.30 L 106.30 2254.70 L 95.00 2244.00 L 84.40 2233.50 L 74.50 2223.00 L 65.40 2212.60 L 56.10 2201.30 L 47.70 2190.10 L 40.10 2179.00 L 33.10 2168.00 L 26.90 2157.00 L 21.40 2146.10 L 16.50 2135.30 L 12.60 2125.30 L 9.20 2115.30 L 6.40 2105.40 L 4.10 2095.50 L 2.30 2085.60 L 1.00 2075.70 L 0.30 2065.80 L 0.00 2055.90 L 0.30 2046.00 L 1.00 2036.10 L 2.30 2026.20 L 4.10 2016.40 L 6.40 2006.50 L 9.20 1996.50 L 12.60 1986.60 L 16.50 1976.60 L 21.40 1965.70 L 26.90 1954.80 L 33.10 1943.90 L 40.10 1932.80 L 47.70 1921.70 L 56.10 1910.50 L 65.40 1899.20 L 74.50 1888.80 L 84.40 1878.40 L 95.00 1867.80 L 106.30 1857.20 L 118.50 1846.50 L 131.40 1835.70 L 145.20 1824.90 L 160.90 1813.30 L 177.50 1801.60 L 195.20 1789.90 L 214.00 1778.10 L 233.90 1766.30 L 254.90 1754.50 L 275.30 1743.50 L 296.70 1732.60 L 319.20 1721.60 L 342.70 1710.70 L 367.40 1699.80 L 393.20 1688.90 L 418.20 1678.80 L 444.20 1668.70 L 471.20 1658.70 L 499.30 1648.70 L 528.50 1638.90 L 558.80 1629.00 L 620.70 1610.30 L 685.80 1592.30 L 719.70 1583.60 L 761.60 1573.30 L 804.70 1563.40 L 848.90 1553.80 L 894.30 1544.50 L 939.40 1535.80 L 985.50 1527.50 L 1032.60 1519.50 L 1080.70 1511.90 L 1128.60 1504.90 L 1177.30 1498.30 L 1226.80 1492.00 L 1277.20 1486.20 L 1327.40 1480.90 L 1378.20 1476.00 L 1429.70 1471.50 L 1481.80 1467.50 L 1533.80 1463.90 L 1586.30 1460.90 L 1639.30 1458.20 L 1692.70 1456.10 L 1746.10 1454.40 L 1799.70 1453.20 L 1853.70 1452.50 L 1908.00 1452.20 L 1962.30 1452.50 L 2016.30 1453.20 L 2069.90 1454.40 L 2123.30 1456.10 L 2176.70 1458.20 L 2229.70 1460.90 L 2282.20 1463.90 L 2334.20 1467.50 L 2386.30 1471.50 L 2437.80 1476.00 L 2488.60 1480.90 L 2538.80 1486.20 L 2589.20 1492.00 L 2638.70 1498.30 L 2687.40 1504.90 L 2735.30 1511.90 L 2783.40 1519.50 L 2830.50 1527.50 L 2876.60 1535.80 L 2921.70 1544.50 L 2967.10 1553.80 L 3011.30 1563.40 L 3054.40 1573.30 L 3096.30 1583.60 L 3130.20 1592.30 L 3195.30 1610.30 L 3257.20 1629.00 L 3287.50 1638.90 L 3316.70 1648.70 L 3344.80 1658.70 L 3371.80 1668.70 L 3397.80 1678.80 L 3422.80 1688.90 L 3448.60 1699.80 L 3473.30 1710.70 L 3496.80 1721.60 L 3519.30 1732.60 L 3540.70 1743.50 L 3561.10 1754.50 L 3582.10 1766.30 L 3602.00 1778.10 L 3620.80 1789.90 L 3638.50 1801.60 L 3655.10 1813.30 L 3670.80 1824.90 L 3684.60 1835.70 L 3697.50 1846.50 L 3709.70 1857.20 L 3721.00 1867.80 L 3731.60 1878.40 L 3741.50 1888.80 L 3750.60 1899.20 L 3759.90 1910.50 L 3768.30 1921.70 L 3775.90 1932.80 L 3782.90 1943.90 L 3789.10 1954.80 L 3794.60 1965.70 L 3799.50 1976.60 L 3803.40 1986.60 L 3806.80 1996.50 L 3809.60 2006.50 L 3811.90 2016.40 L 3813.70 2026.20 L 3815.00 2036.10 L 3815.70 2046.00 L 3816.00 2055.90 Z" fill="url(#paint3_linear_400_12)" fill-rule="nonzero" node-id="442" stroke="none" target-height="1207.4001" target-width="3816" target-x="0" target-y="1452.2"></path><path d="M 3376.30 1549.10 L 3358.10 1787.60 L 3223.50 1748.60 L 3376.30 1549.10 Z" fill="#e4efff" fill-rule="nonzero" node-id="444" stroke="none" target-height="238.5" target-width="152.80005" target-x="3223.5" target-y="1549.1"></path><path d="M 3372.00 1549.10 L 3484.30 1759.30 L 3353.90 1787.60 L 3372.00 1549.10 Z" fill="#f3f8ff" fill-rule="nonzero" node-id="446" stroke="none" target-height="238.5" target-width="130.40015" target-x="3353.9" target-y="1549.1"></path><path d="M 649.00 1929.30 L 649.90 1935.00 L 652.40 1940.60 L 656.80 1946.30 L 663.50 1952.20 L 673.30 1958.60 L 686.30 1964.90 L 702.90 1971.00 L 719.80 1975.80 L 739.20 1980.00 L 761.40 1983.60 L 783.60 1986.10 L 807.40 1987.60 L 833.00 1988.20 L 858.60 1987.60 L 882.40 1986.10 L 904.60 1983.60 L 926.80 1980.00 L 946.20 1975.80 L 963.20 1971.00 L 979.80 1964.90 L 992.70 1958.60 L 1002.60 1952.20 L 1009.30 1946.30 L 1013.70 1940.60 L 1016.20 1935.00 L 1017.00 1929.30 L 1016.20 1923.70 L 1013.70 1918.00 L 1009.30 1912.30 L 1002.60 1906.40 L 992.70 1900.10 L 979.80 1893.80 L 963.20 1887.70 L 946.20 1882.90 L 926.80 1878.60 L 904.60 1875.10 L 882.40 1872.60 L 858.60 1871.00 L 833.00 1870.40 L 807.40 1871.00 L 783.60 1872.60 L 761.40 1875.10 L 739.20 1878.60 L 719.80 1882.90 L 702.90 1887.70 L 686.30 1893.80 L 673.30 1900.10 L 663.50 1906.40 L 656.80 1912.30 L 652.40 1918.00 L 649.90 1923.70 L 649.00 1929.30 Z" fill="#84c1ff" fill-opacity="0.15" fill-rule="evenodd" node-id="448" stroke="none" target-height="117.79993" target-width="368" target-x="649" target-y="1870.4"></path><path d="M 889.60 1886.80 L 892.60 1906.70 L 904.90 1908.10 L 918.30 1911.60 L 933.20 1917.70 L 939.20 1922.10 L 941.70 1925.00 L 942.90 1928.10 L 943.30 1931.60 L 942.10 1932.80 L 935.10 1933.90 L 913.40 1934.10 L 863.60 1931.60 L 863.60 1879.50 L 889.60 1886.80 Z" fill="url(#paint4_linear_400_12)" fill-rule="nonzero" node-id="450" stroke="none" target-height="54.599976" target-width="79.70001" target-x="863.6" target-y="1879.5"></path><path d="M 771.80 1886.80 L 774.90 1906.70 L 787.10 1908.10 L 800.50 1911.60 L 815.40 1917.70 L 821.40 1922.10 L 823.90 1925.00 L 825.10 1928.10 L 825.50 1931.60 L 824.40 1932.80 L 817.30 1933.90 L 795.60 1934.10 L 745.90 1931.60 L 745.90 1879.50 L 771.80 1886.80 Z" fill="url(#paint5_linear_400_12)" fill-rule="nonzero" node-id="452" stroke="none" target-height="54.599976" target-width="79.599976" target-x="745.9" target-y="1879.5"></path><path d="M 798.10 1476.60 L 780.70 1477.20 L 763.70 1479.00 L 765.90 1522.60 L 766.40 1568.30 L 766.00 1594.20 L 764.80 1622.20 L 759.50 1697.90 L 753.00 1772.10 L 746.60 1836.10 L 739.80 1897.80 L 777.90 1897.80 L 782.50 1881.90 L 794.00 1839.20 L 809.00 1777.40 L 816.60 1742.30 L 823.90 1704.50 L 830.30 1666.10 L 835.30 1628.10 L 838.60 1590.40 L 839.70 1555.80 L 844.00 1581.20 L 847.90 1610.70 L 850.90 1641.30 L 853.50 1673.80 L 856.90 1738.90 L 858.70 1800.20 L 859.40 1851.50 L 859.40 1899.80 L 899.40 1895.80 L 904.60 1839.60 L 909.30 1781.30 L 913.80 1713.50 L 917.00 1644.40 L 917.60 1610.80 L 917.40 1581.30 L 915.60 1531.00 L 913.30 1497.70 L 912.20 1485.70 L 892.50 1483.80 L 872.80 1483.60 L 853.00 1485.00 L 838.60 1480.90 L 822.40 1477.90 L 811.00 1476.90 L 798.10 1476.60 Z" fill="#153f82" fill-rule="nonzero" node-id="454" stroke="none" target-height="423.20007" target-width="177.79999" target-x="739.8" target-y="1476.6"></path><path d="M 813.00 1162.00 L 849.00 1162.00 L 852.50 1216.00 L 810.50 1214.50 L 813.00 1162.00 Z" fill="url(#paint6_linear_400_12)" fill-rule="evenodd" node-id="456" stroke="none" target-height="54" target-width="42" target-x="810.5" target-y="1162"></path><path d="M 857.00 1193.30 L 863.80 1196.90 L 870.50 1201.10 L 878.90 1207.40 L 886.80 1215.10 L 893.90 1224.60 L 900.90 1237.90 L 907.20 1252.80 L 912.70 1268.20 L 917.10 1282.40 L 923.30 1305.80 L 925.40 1315.20 L 926.10 1320.60 L 930.00 1335.40 L 933.60 1345.10 L 939.50 1357.30 L 950.90 1377.00 L 957.10 1385.70 L 959.00 1387.50 L 969.90 1394.60 L 978.60 1399.80 L 985.10 1402.60 L 994.00 1405.50 L 1007.80 1411.20 L 997.00 1444.70 L 989.50 1443.80 L 970.70 1440.90 L 959.10 1438.40 L 946.10 1435.20 L 933.20 1431.20 L 921.00 1426.40 L 912.80 1421.60 L 906.00 1415.80 L 900.30 1409.20 L 896.00 1403.00 L 890.30 1392.10 L 888.40 1387.50 L 857.00 1193.30 Z" fill="#429cfd" fill-rule="evenodd" node-id="458" stroke="none" target-height="251.3999" target-width="150.79999" target-x="857" target-y="1193.3"></path><path d="M 846.70 1208.90 L 846.00 1210.40 L 844.90 1211.60 L 843.60 1212.30 L 842.10 1212.70 L 840.60 1212.60 L 839.10 1212.10 L 800.20 1190.60 L 798.80 1190.10 L 797.40 1190.10 L 796.10 1190.40 L 794.90 1191.30 L 791.10 1195.00 L 781.10 1202.20 L 773.60 1208.40 L 769.50 1212.80 L 765.80 1218.10 L 763.30 1224.10 L 761.20 1233.00 L 759.00 1252.80 L 758.20 1270.10 L 758.50 1313.50 L 757.10 1347.60 L 754.40 1394.80 L 752.50 1438.40 L 751.00 1482.80 L 808.40 1485.10 L 837.60 1485.70 L 875.00 1485.30 L 914.50 1483.60 L 890.60 1264.50 L 889.80 1258.30 L 887.10 1243.10 L 884.80 1233.70 L 881.70 1223.70 L 877.90 1213.90 L 873.20 1205.10 L 869.60 1200.80 L 865.00 1197.30 L 856.00 1192.80 L 854.80 1192.60 L 852.70 1193.10 L 851.00 1194.60 L 850.50 1195.70 L 846.70 1208.90 Z" fill="#429cfd" fill-rule="evenodd" node-id="460" stroke="none" target-height="295.59998" target-width="163.5" target-x="751" target-y="1190.1"></path><path d="M 799.10 1337.10 L 898.70 1410.30 L 880.60 1450.50 L 822.50 1418.40 L 796.90 1402.30 L 774.60 1387.60 L 754.50 1373.00 L 746.90 1366.50 L 743.40 1362.40 L 740.40 1356.30 L 738.80 1350.30 L 737.80 1340.00 L 740.60 1303.40 L 743.80 1274.30 L 745.90 1259.50 L 748.30 1246.70 L 751.30 1235.00 L 754.30 1228.10 L 758.80 1221.80 L 765.10 1215.40 L 777.50 1205.40 L 783.00 1201.50 L 786.00 1205.80 L 793.20 1217.20 L 796.90 1224.10 L 800.00 1231.20 L 802.30 1239.50 L 803.30 1247.90 L 803.00 1262.50 L 802.20 1268.70 L 796.20 1305.20 L 794.10 1320.10 L 793.50 1328.20 L 794.80 1331.90 L 796.60 1334.70 L 799.10 1337.10 Z" fill="#429cfd" fill-rule="nonzero" node-id="462" stroke="none" target-height="249" target-width="160.90002" target-x="737.8" target-y="1201.5"></path><g node-id="529"><path d="M 799.10 1337.10 L 898.70 1410.30 L 880.60 1450.50 L 822.50 1418.40 L 796.90 1402.30 L 774.60 1387.60 L 754.50 1373.00 L 746.90 1366.50 L 743.40 1362.40 L 740.40 1356.30 L 738.80 1350.30 L 737.80 1340.00 L 740.60 1303.40 L 743.80 1274.30 L 745.90 1259.50 L 748.30 1246.70 L 751.30 1235.00 L 754.30 1228.10 L 758.80 1221.80 L 765.10 1215.40 L 777.50 1205.40 L 783.00 1201.50 L 786.00 1205.80 L 793.20 1217.20 L 796.90 1224.10 L 800.00 1231.20 L 802.30 1239.50 L 803.30 1247.90 L 803.00 1262.50 L 802.20 1268.70 L 796.20 1305.20 L 794.10 1320.10 L 793.50 1328.20 L 794.80 1331.90 L 796.60 1334.70 L 799.10 1337.10 Z" fill="none" group-id="1" node-id="466" stroke="url(#paint7_linear_400_12)" stroke-linecap="butt" stroke-width="1" target-height="249" target-width="160.90002" target-x="737.8" target-y="1201.5"></path></g><path d="M 1024.10 1358.40 L 912.30 1358.40 L 910.20 1358.80 L 908.50 1360.00 L 907.30 1361.70 L 906.90 1363.80 L 903.60 1437.20 L 904.10 1439.20 L 905.20 1441.00 L 907.00 1442.10 L 909.10 1442.50 L 1016.50 1442.50 L 1018.60 1442.10 L 1020.40 1441.00 L 1021.60 1439.20 L 1022.00 1437.20 L 1029.60 1363.80 L 1029.20 1361.70 L 1028.00 1360.00 L 1026.20 1358.80 L 1024.10 1358.40 Z" fill="#000000" fill-rule="evenodd" node-id="469" stroke="none" target-height="84.099976" target-width="126" target-x="903.6" target-y="1358.4"></path><path d="M 899.30 1411.20 L 930.30 1412.20 L 931.70 1412.80 L 932.60 1414.00 L 933.20 1417.10 L 932.70 1418.80 L 931.30 1420.00 L 923.60 1423.00 L 935.20 1424.90 L 950.60 1424.90 L 952.20 1425.40 L 953.20 1426.60 L 953.50 1429.80 L 951.60 1443.50 L 950.40 1446.40 L 948.30 1448.60 L 943.90 1450.30 L 931.80 1451.50 L 913.00 1452.20 L 904.70 1452.10 L 896.50 1451.30 L 891.10 1450.00 L 883.00 1447.40 L 890.70 1428.20 L 894.70 1419.60 L 899.30 1411.20 Z M 1022.60 1411.70 L 996.20 1410.20 L 995.00 1410.60 L 994.10 1411.60 L 993.40 1414.60 L 993.70 1416.20 L 994.80 1417.50 L 1001.20 1420.90 L 991.20 1421.80 L 978.10 1420.50 L 976.70 1420.90 L 975.80 1421.90 L 975.30 1425.00 L 975.90 1438.10 L 976.50 1440.50 L 977.80 1442.60 L 979.60 1444.10 L 982.00 1445.20 L 992.10 1447.30 L 1008.10 1449.50 L 1022.10 1449.90 L 1024.90 1449.80 L 1027.70 1449.00 L 1029.50 1447.10 L 1030.80 1444.80 L 1031.80 1434.90 L 1030.70 1425.10 L 1028.20 1416.20 L 1026.10 1413.10 L 1022.60 1411.70 Z" fill="#fee0bc" fill-rule="evenodd" node-id="471" stroke="none" target-height="42" target-width="148.80005" target-x="883" target-y="1410.2"></path><path d="M 799.50 1133.50 L 800.20 1148.40 L 801.10 1155.10 L 802.50 1161.70 L 804.30 1167.60 L 806.40 1172.70 L 808.40 1176.40 L 810.70 1179.60 L 813.20 1182.30 L 816.00 1184.60 L 819.10 1186.50 L 822.50 1187.80 L 826.30 1188.70 L 830.50 1189.00 L 834.80 1188.70 L 838.70 1187.80 L 842.30 1186.50 L 845.70 1184.60 L 848.90 1182.30 L 851.70 1179.60 L 854.40 1176.40 L 856.90 1172.70 L 860.80 1164.70 L 863.70 1155.10 L 865.00 1148.40 L 865.70 1141.20 L 866.00 1133.50 L 865.70 1125.80 L 865.00 1118.60 L 863.70 1111.90 L 860.80 1102.30 L 856.90 1094.30 L 854.40 1090.60 L 851.70 1087.40 L 848.90 1084.70 L 845.70 1082.40 L 842.30 1080.50 L 838.70 1079.20 L 834.80 1078.30 L 830.50 1078.00 L 826.30 1078.30 L 822.50 1079.20 L 819.10 1080.50 L 816.00 1082.40 L 813.20 1084.70 L 810.70 1087.40 L 808.40 1090.60 L 806.40 1094.30 L 804.30 1099.40 L 802.50 1105.30 L 801.10 1111.90 L 800.20 1118.60 L 799.70 1125.80 L 799.50 1133.50 Z" fill="#ffe7ca" fill-rule="nonzero" node-id="473" stroke="none" target-height="111" target-width="66.5" target-x="799.5" target-y="1078"></path><path d="M 845.00 1073.30 L 846.70 1071.40 L 848.60 1070.00 L 851.90 1068.90 L 855.80 1069.10 L 861.70 1071.10 L 866.60 1074.60 L 868.70 1078.10 L 869.40 1082.10 L 869.00 1085.50 L 867.60 1090.40 L 867.70 1092.30 L 868.50 1093.60 L 870.00 1094.20 L 875.50 1092.80 L 879.40 1092.90 L 883.10 1094.60 L 886.90 1099.40 L 888.00 1104.10 L 887.10 1110.60 L 884.30 1117.00 L 880.00 1122.50 L 876.40 1125.30 L 872.30 1126.70 L 867.70 1126.90 L 857.90 1124.30 L 851.00 1120.80 L 845.30 1116.30 L 841.20 1112.40 L 834.90 1107.40 L 831.40 1105.50 L 828.50 1104.60 L 826.00 1105.10 L 824.70 1107.10 L 822.70 1121.90 L 821.80 1124.10 L 820.80 1124.10 L 819.80 1122.60 L 817.00 1112.70 L 815.00 1110.30 L 811.80 1109.30 L 808.50 1110.10 L 806.60 1112.40 L 805.80 1115.50 L 806.10 1119.40 L 807.40 1123.20 L 811.40 1128.90 L 810.00 1134.90 L 807.50 1138.90 L 804.10 1141.90 L 802.90 1141.70 L 801.10 1139.20 L 799.20 1135.30 L 797.10 1128.50 L 796.00 1120.40 L 796.90 1104.20 L 796.40 1102.50 L 791.20 1096.70 L 789.50 1093.40 L 789.00 1089.80 L 790.60 1085.00 L 793.80 1081.10 L 796.60 1079.60 L 806.40 1079.20 L 807.60 1078.40 L 809.40 1069.90 L 811.10 1066.80 L 813.70 1063.90 L 817.10 1061.80 L 821.60 1061.00 L 828.20 1062.20 L 832.50 1064.50 L 835.80 1067.90 L 838.00 1071.30 L 840.20 1074.00 L 841.90 1074.60 L 843.60 1074.30 L 845.00 1073.30 Z" fill="#003a8c" fill-rule="nonzero" node-id="475" stroke="none" target-height="80.900024" target-width="99" target-x="789" target-y="1061"></path><path d="M 1430.40 2069.20 L 1429.10 2070.10 L 1427.50 2072.80 L 1427.00 2078.20 L 1426.20 2081.80 L 1425.10 2085.30 L 1423.50 2088.70 L 1421.60 2091.80 L 1419.20 2094.80 L 1416.50 2097.50 L 1413.50 2099.80 L 1410.10 2101.90 L 1406.60 2103.40 L 1403.10 2104.50 L 1399.60 2105.20 L 1396.10 2105.50 L 1392.50 2105.40 L 1389.10 2104.90 L 1387.10 2104.20 L 1385.60 2103.30 L 1384.60 2102.20 L 1383.80 2100.90 L 1383.30 2099.40 L 1383.40 2096.20 L 1384.90 2093.00 L 1386.00 2091.50 L 1387.40 2090.20 L 1392.40 2087.20 L 1393.80 2085.90 L 1395.00 2084.40 L 1396.40 2081.00 L 1396.60 2079.10 L 1396.20 2075.40 L 1395.40 2073.60 L 1394.30 2071.90 L 1391.60 2069.30 L 1389.90 2068.50 L 1386.30 2067.70 L 1382.50 2068.10 L 1377.10 2070.50 L 1375.20 2071.00 L 1373.40 2071.00 L 1370.00 2070.30 L 1367.20 2068.60 L 1366.30 2067.40 L 1365.40 2064.50 L 1365.50 2062.70 L 1366.10 2060.80 L 1369.60 2054.60 L 1371.90 2051.90 L 1374.50 2049.40 L 1377.40 2047.10 L 1380.70 2045.20 L 1384.30 2043.60 L 1388.00 2042.40 L 1391.80 2041.80 L 1395.50 2041.60 L 1399.30 2041.80 L 1402.90 2042.50 L 1406.50 2043.60 L 1409.90 2045.10 L 1414.60 2047.70 L 1417.70 2048.00 L 1419.20 2047.50 L 1460.30 2026.20 L 1464.40 2024.90 L 1466.50 2024.80 L 1470.60 2025.70 L 1474.10 2028.00 L 1475.50 2029.50 L 1476.80 2031.40 L 1477.60 2033.50 L 1478.00 2035.50 L 1477.80 2039.70 L 1476.20 2043.50 L 1475.00 2045.20 L 1471.50 2047.90 L 1430.40 2069.20 Z" fill="#d9e8ff" fill-opacity="0.7" fill-rule="nonzero" node-id="477" stroke="none" target-height="80.69995" target-width="112.599976" target-x="1365.4" target-y="2024.8"></path><path d="M 2229.00 1855.00 L 2025.80 1746.20 L 2019.30 1742.00 L 1989.80 1718.10 L 1964.00 1702.20 L 2167.10 1810.90 L 2192.90 1826.80 L 2222.40 1850.80 L 2229.00 1855.00 Z" fill="url(#paint8_linear_400_12)" fill-rule="nonzero" node-id="479" stroke="none" target-height="152.80005" target-width="265" target-x="1964" target-y="1702.2"></path><path d="M 2229.00 1855.00 L 2025.80 1746.20 L 2019.30 1742.00 L 1989.80 1718.10 L 1964.00 1702.20 L 2167.10 1810.90 L 2192.90 1826.80 L 2222.40 1850.80 L 2229.00 1855.00 Z" fill="url(#paint9_linear_400_12)" fill-rule="nonzero" node-id="481" stroke="none" target-height="152.80005" target-width="265" target-x="1964" target-y="1702.2"></path><path d="M 2654.50 752.20 L 2455.70 644.20 L 2466.50 649.70 L 2483.70 656.20 L 2520.30 665.20 L 2538.00 670.80 L 2547.10 675.10 L 2745.80 783.20 L 2736.80 778.90 L 2719.10 773.20 L 2682.40 764.20 L 2665.10 757.80 L 2654.50 752.20 Z" fill="url(#paint10_linear_400_12)" fill-rule="nonzero" node-id="483" stroke="none" target-height="139" target-width="290.1001" target-x="2455.7" target-y="644.2"></path><path d="M 2458.30 639.80 L 2467.20 644.20 L 2671.10 750.10 L 2458.30 639.80 Z" fill="url(#paint11_linear_400_12)" fill-rule="nonzero" node-id="485" stroke="none" target-height="110.29999" target-width="212.80005" target-x="2458.3" target-y="639.8"></path><path d="M 2698.50 758.70 L 2494.80 652.00 L 2524.50 658.20 L 2728.40 770.10 L 2719.30 768.10 L 2715.30 766.40" fill="url(#paint12_linear_400_12)" fill-rule="nonzero" node-id="487" stroke="none" target-height="118.099976" target-width="233.59985" target-x="2494.8" target-y="652"></path><path d="M 2725.30 769.70 L 2524.30 659.80 L 2543.20 665.60 L 2549.20 668.20 L 2757.10 783.20 L 2747.90 777.80 L 2736.00 773.70 L 2726.90 769.70 L 2725.30 769.70 Z" fill="url(#paint13_linear_400_12)" fill-rule="nonzero" node-id="489" stroke="none" target-height="123.400024" target-width="232.80005" target-x="2524.3" target-y="659.8"></path><path d="M 2753.90 774.60 L 2549.50 667.60 L 2552.80 669.10 L 2753.90 774.60 Z" fill="url(#paint14_linear_400_12)" fill-rule="nonzero" node-id="491" stroke="none" target-height="107" target-width="204.3999" target-x="2549.5" target-y="667.6"></path><path d="M 2304.70 1193.80 L 2315.30 1168.30 L 2316.20 1165.80 L 2316.20 1164.40 L 2322.40 1146.20 L 2328.00 1127.60 L 2334.80 1098.30 L 2336.60 1089.80 L 2339.60 1070.50 L 2341.90 1051.00 L 2342.70 1038.20 L 2342.70 1011.50 L 2341.40 979.30 L 2337.50 948.90 L 2331.40 920.10 L 2323.00 892.70 L 2312.10 865.90 L 2299.30 841.00 L 2284.70 817.80 L 2268.10 796.30 L 2249.60 776.30 L 2229.70 758.40 L 2208.10 742.50 L 2185.00 728.50 L 1981.90 619.00 L 2005.10 633.00 L 2026.60 648.80 L 2046.60 666.70 L 2065.10 686.70 L 2081.70 708.20 L 2096.30 731.30 L 2109.10 756.20 L 2120.00 783.00 L 2128.40 810.50 L 2134.50 839.30 L 2138.30 869.70 L 2139.70 901.90 L 2139.70 928.70 L 2138.80 941.40 L 2137.90 949.30 L 2136.50 961.00 L 2133.50 980.20 L 2129.70 999.40 L 2124.90 1018.20 L 2119.40 1036.70 L 2113.10 1054.90 L 2100.00 1086.90 L 2084.60 1117.50 L 2072.60 1138.10 L 2072.60 1139.00 L 2056.10 1163.60 L 2042.40 1182.20 L 2028.10 1199.10 L 2012.80 1215.30 L 1991.60 1235.40 L 1969.90 1252.80 L 1954.60 1263.90 L 1950.10 1267.00 L 1926.70 1281.20 L 1897.60 1296.40 L 1870.30 1308.00 L 1848.40 1315.30 L 1825.60 1321.30 L 1819.50 1322.80 L 1796.50 1326.90 L 1782.60 1328.40 L 1767.80 1329.50 L 1729.20 1329.50 L 1701.50 1326.40 L 1678.00 1321.60 L 1675.20 1321.60 L 1649.60 1313.70 L 1642.20 1310.80 L 1624.80 1303.40 L 1610.50 1296.30 L 1813.70 1405.70 L 1824.20 1411.10 L 1853.00 1423.20 L 1878.70 1431.20 L 1881.20 1431.20 L 1904.70 1436.00 L 1932.40 1439.00 L 1971.00 1439.00 L 1985.50 1438.10 L 1999.70 1436.30 L 2022.80 1432.10 L 2051.80 1424.80 L 2073.60 1417.40 L 2100.00 1406.40 L 2100.90 1406.40 L 2125.70 1393.60 L 2153.50 1376.90 L 2158.00 1373.70 L 2176.70 1359.40 L 2194.30 1345.20 L 2210.50 1330.00 L 2230.00 1309.70 L 2230.00 1308.80 L 2244.40 1291.90 L 2260.10 1270.40 L 2274.50 1248.80 L 2274.50 1248.00 L 2288.00 1224.80 L 2301.90 1196.80 L 2304.70 1193.80 Z" fill="url(#paint15_linear_400_12)" fill-rule="nonzero" node-id="493" stroke="none" target-height="820" target-width="732.19995" target-x="1610.5" target-y="619"></path><path d="M 1594.00 1870.70 L 1395.80 1768.20 L 1363.70 1749.20 L 1333.00 1728.20 L 1303.60 1705.20 L 1292.70 1692.20 L 1283.90 1677.80 L 1486.10 1789.60 L 1494.90 1804.10 L 1505.70 1817.00 L 1520.20 1828.20 L 1534.10 1837.50 L 1563.00 1854.10 L 1594.00 1870.70 Z" fill="url(#paint16_linear_400_12)" fill-rule="nonzero" node-id="495" stroke="none" target-height="192.8999" target-width="310.09998" target-x="1283.9" target-y="1677.8"></path><path d="M 1396.50 1768.50 L 1364.40 1749.70 L 1333.60 1728.80 L 1304.20 1705.90 L 1292.60 1695.20 L 1287.50 1689.70 L 1283.00 1683.00 L 1485.30 1783.80 L 1490.10 1791.50 L 1496.70 1800.00 L 1510.10 1814.70 L 1554.50 1845.50 L 1576.40 1859.50 L 1600.10 1873.30 L 1396.50 1768.50 Z" fill="url(#paint17_linear_400_12)" fill-rule="nonzero" node-id="497" stroke="none" target-height="190.30005" target-width="317.09998" target-x="1283" target-y="1683"></path><path d="M 1158.00 1299.10 L 1358.80 1408.60 L 1381.90 1423.80 L 1403.00 1441.00 L 1422.30 1460.40 L 1439.50 1481.60 L 1454.30 1504.60 L 1466.80 1529.30 L 1479.20 1558.80 L 1488.50 1589.10 L 1494.80 1620.30 L 1498.10 1652.50 L 1498.50 1684.60 L 1496.30 1718.60 L 1491.40 1754.50 L 1483.50 1792.50 L 1282.70 1683.00 L 1290.50 1645.10 L 1295.50 1609.40 L 1297.70 1575.50 L 1297.30 1543.30 L 1294.00 1511.10 L 1287.80 1479.80 L 1278.50 1449.30 L 1266.10 1419.60 L 1253.60 1394.90 L 1238.80 1371.90 L 1221.60 1350.70 L 1202.30 1331.30 L 1181.10 1314.10 L 1158.00 1299.10 Z" fill="url(#paint18_linear_400_12)" fill-rule="nonzero" node-id="499" stroke="none" target-height="493.40002" target-width="340.5" target-x="1158" target-y="1299.1"></path><path d="M 1282.30 1683.00 L 1290.10 1645.10 L 1295.10 1609.40 L 1297.20 1575.50 L 1296.90 1543.30 L 1293.60 1511.10 L 1287.40 1479.80 L 1278.10 1449.30 L 1265.80 1419.60 L 1253.30 1394.90 L 1238.60 1371.90 L 1221.40 1350.70 L 1202.20 1331.30 L 1181.10 1314.10 L 1158.00 1299.10 L 1363.30 1400.80 L 1386.30 1416.10 L 1407.00 1433.70 L 1425.80 1453.60 L 1442.50 1475.30 L 1456.90 1498.60 L 1469.20 1523.50 L 1481.60 1553.00 L 1490.80 1583.60 L 1497.00 1615.50 L 1500.10 1648.80 L 1500.20 1681.80 L 1497.40 1716.70 L 1491.50 1753.50 L 1482.50 1792.50 L 1282.30 1683.00 Z" fill="url(#paint19_linear_400_12)" fill-rule="nonzero" node-id="501" stroke="none" target-height="493.40002" target-width="342.19995" target-x="1158" target-y="1299.1"></path><path d="M 2278.60 200.30 L 2308.40 210.40 L 2338.20 221.80 L 2368.30 235.00 L 2405.30 253.00 L 2203.90 144.50 L 2179.20 131.90 L 2147.10 117.40 L 2137.20 113.20 L 2107.60 102.00 L 2077.60 91.80 L 2073.80 90.90 L 2069.20 90.00 L 2056.90 90.00 L 2049.00 92.30 L 2044.00 95.10 L 2039.50 98.70 L 2034.80 103.50 L 2015.80 127.60 L 2003.10 142.80 L 1999.40 146.70 L 1983.00 163.80 L 1967.50 178.30 L 1951.70 191.40 L 1951.00 191.40 L 1929.80 206.70 L 1908.60 219.90 L 1887.40 230.90 L 1864.20 240.90 L 1845.90 247.20 L 1826.50 252.30 L 1821.10 253.60 L 1802.50 256.80 L 1791.70 258.00 L 1779.90 258.90 L 1749.10 258.90 L 1726.60 256.30 L 1704.50 252.00 L 1682.90 245.20 L 1661.60 236.40 L 1648.70 230.20 L 1850.30 338.60 L 1859.40 343.30 L 1883.90 353.70 L 1905.40 360.40 L 1927.50 364.60 L 1950.10 367.10 L 1980.80 367.10 L 1992.20 366.60 L 2003.50 365.00 L 2027.50 360.50 L 2041.70 356.90 L 2065.10 349.10 L 2086.00 340.40 L 2109.60 328.10 L 2133.40 313.20 L 2152.00 299.50 L 2169.60 284.90 L 2188.40 266.90 L 2202.50 252.00 L 2212.00 240.90 L 2235.60 211.20 L 2242.40 204.70 L 2243.90 203.70 L 2250.10 199.90 L 2258.20 197.50 L 2270.50 197.50 L 2278.60 200.30 Z" fill="url(#paint20_linear_400_12)" fill-rule="nonzero" node-id="503" stroke="none" target-height="277.1" target-width="756.6001" target-x="1648.7" target-y="90"></path><path d="M 1051.90 1265.30 L 1043.60 1258.80 L 1037.60 1250.30 L 1034.20 1240.50 L 1033.70 1229.80 L 1032.00 1072.70 L 1032.70 915.40 L 1034.10 909.80 L 1038.70 902.60 L 1044.80 895.80 L 1052.30 889.10 L 1060.40 883.20 L 1067.40 879.30 L 1098.70 863.50 L 1127.40 846.20 L 1153.50 827.20 L 1177.40 806.60 L 1199.00 784.30 L 1218.60 760.20 L 1239.30 729.30 L 1257.20 696.00 L 1272.10 660.10 L 1284.30 621.20 L 1293.50 579.20 L 1296.90 550.90 L 1297.50 522.10 L 1296.00 493.30 L 1292.80 464.40 L 1281.70 393.00 L 1281.40 380.60 L 1282.80 370.10 L 1286.40 360.40 L 1292.90 350.60 L 1303.10 340.70 L 1523.50 164.30 L 1533.70 157.30 L 1545.40 153.40 L 1554.20 153.60 L 1562.30 156.70 L 1762.50 266.90 L 1754.30 263.70 L 1745.60 263.40 L 1734.00 267.50 L 1723.70 274.40 L 1503.20 451.20 L 1492.90 461.00 L 1486.40 470.80 L 1482.80 480.50 L 1481.40 491.10 L 1481.70 503.50 L 1492.90 574.30 L 1496.10 603.00 L 1497.60 632.00 L 1496.90 660.90 L 1493.50 689.60 L 1484.40 731.70 L 1472.40 770.50 L 1457.40 806.40 L 1439.60 839.70 L 1419.00 870.60 L 1399.50 894.60 L 1377.80 917.00 L 1354.00 937.60 L 1327.70 956.60 L 1299.00 974.00 L 1267.50 989.70 L 1260.30 993.60 L 1252.20 999.40 L 1244.80 1006.10 L 1238.60 1013.00 L 1234.20 1020.20 L 1232.70 1025.90 L 1231.90 1104.60 L 1232.20 1183.20 L 1233.70 1340.20 L 1234.40 1350.90 L 1237.80 1360.60 L 1243.80 1369.00 L 1252.10 1375.60 L 1051.90 1265.30 Z" fill="url(#paint21_linear_400_12)" fill-rule="nonzero" node-id="505" stroke="none" target-height="1222.2" target-width="730.5" target-x="1032" target-y="153.4"></path><path d="M 1076.90 873.50 L 1067.90 877.50 L 1067.00 877.50 L 1057.90 882.90 L 1048.00 890.70 L 1041.20 897.60 L 1037.20 902.60 L 1035.00 906.20 L 1033.70 909.10 L 1032.80 913.10 L 1032.00 991.90 L 1032.20 1070.40 L 1033.80 1227.30 L 1034.30 1238.00 L 1037.70 1247.80 L 1043.80 1256.30 L 1052.20 1262.80 L 1254.20 1373.00 L 1245.80 1366.30 L 1239.80 1357.90 L 1236.40 1348.10 L 1235.80 1337.40 L 1234.10 1180.40 L 1234.80 1023.30 L 1235.50 1019.30 L 1237.00 1016.20 L 1239.20 1012.70 L 1243.10 1007.70 L 1250.00 1000.70 L 1259.70 993.00 L 1269.00 987.50 L 1269.90 987.50 L 1278.70 983.60 L 1076.90 873.50 Z" fill="url(#paint22_linear_400_12)" fill-rule="nonzero" node-id="507" stroke="none" target-height="499.5" target-width="246.69995" target-x="1032" target-y="873.5"></path><path d="M 1489.80 518.80 L 1487.10 504.50 L 1487.10 490.40 L 1489.80 476.10 L 1287.50 367.10 L 1284.90 381.30 L 1284.90 395.40 L 1287.50 409.70 L 1296.40 465.80 L 1299.40 494.60 L 1300.70 523.50 L 1299.80 552.40 L 1296.30 581.00 L 1291.00 608.10 L 1284.20 634.70 L 1275.70 660.90 L 1264.80 687.20 L 1252.20 712.70 L 1237.90 736.90 L 1221.90 759.90 L 1204.00 781.70 L 1190.10 796.70 L 1175.40 811.00 L 1156.20 825.70 L 1136.10 839.20 L 1107.30 857.50 L 1077.20 873.30 L 1280.60 983.80 L 1311.20 968.00 L 1340.50 949.80 L 1359.60 935.70 L 1377.90 920.30 L 1392.70 906.10 L 1406.50 891.10 L 1419.40 875.70 L 1431.60 859.50 L 1443.70 841.20 L 1454.70 822.20 L 1467.30 796.60 L 1478.20 770.20 L 1490.80 730.40 L 1499.70 689.60 L 1503.10 661.00 L 1503.70 632.10 L 1502.10 603.30 L 1498.90 574.60 L 1489.80 518.80 Z" fill="url(#paint23_linear_400_12)" fill-rule="nonzero" node-id="509" stroke="none" target-height="616.69995" target-width="426.5" target-x="1077.2" target-y="367.1"></path><path d="M 1302.40 347.10 L 1296.80 352.80 L 1293.00 357.40 L 1289.90 362.20 L 1287.40 368.00 L 1489.60 476.50 L 1492.10 470.80 L 1495.20 466.00 L 1499.00 461.20 L 1504.50 455.70 L 1302.40 347.10 Z" fill="url(#paint24_linear_400_12)" fill-rule="nonzero" node-id="511" stroke="none" target-height="129.4" target-width="217.09998" target-x="1287.4" target-y="347.1"></path><path d="M 1504.50 455.70 L 1302.10 346.10 L 1306.10 342.70 L 1529.10 166.80 L 1533.20 163.80 L 1735.60 273.20 L 1508.50 452.10 L 1504.50 455.60" fill="url(#paint25_linear_400_12)" fill-rule="nonzero" node-id="513" stroke="none" target-height="291.90002" target-width="433.5" target-x="1302.1" target-y="163.8"></path><path d="M 1736.20 273.30 L 1534.10 164.30 L 1542.20 159.50 L 1744.30 268.60 L 1736.20 273.30 Z" fill="url(#paint26_linear_400_12)" fill-rule="nonzero" node-id="515" stroke="none" target-height="113.79999" target-width="210.20007" target-x="1534.1" target-y="159.5"></path><path d="M 1745.10 269.10 L 1542.80 158.70 L 1552.60 155.70 L 1557.70 155.10 L 1562.90 155.70 L 1765.10 266.70 L 1760.10 266.20 L 1755.00 266.70 L 1745.10 269.80" fill="url(#paint27_linear_400_12)" fill-rule="nonzero" node-id="517" stroke="none" target-height="114.69998" target-width="222.29993" target-x="1542.8" target-y="155.1"></path><path d="M 1765.50 266.80 L 1561.90 156.00 L 1567.50 158.10 L 1771.20 268.90 L 1765.50 266.80 Z" fill="url(#paint28_linear_400_12)" fill-rule="nonzero" node-id="519" stroke="none" target-height="112.899994" target-width="209.29993" target-x="1561.9" target-y="156"></path><path d="M 1770.80 268.90 L 1567.10 159.50 L 1568.40 159.50 L 1772.10 268.90 L 1770.80 268.90 Z" fill="url(#paint29_linear_400_12)" fill-rule="nonzero" node-id="521" stroke="none" target-height="109.399994" target-width="205" target-x="1567.1" target-y="159.5"></path><path d="M 2772.70 802.70 L 2779.00 855.20 L 2782.70 908.20 L 2784.00 961.60 L 2782.90 1001.60 L 2779.70 1041.90 L 2774.30 1082.70 L 2766.60 1123.90 L 2761.40 1136.80 L 2754.10 1148.30 L 2744.80 1158.30 L 2733.60 1166.50 L 2704.50 1182.20 L 2677.20 1200.00 L 2651.70 1220.10 L 2627.70 1242.60 L 2605.70 1267.00 L 2585.90 1292.80 L 2568.10 1320.00 L 2552.50 1348.80 L 2539.20 1378.90 L 2528.40 1409.40 L 2520.20 1440.80 L 2514.50 1472.80 L 2511.60 1505.20 L 2511.60 1537.40 L 2514.50 1569.60 L 2522.70 1613.80 L 2522.80 1625.40 L 2520.70 1636.80 L 2516.40 1647.70 L 2510.20 1657.50 L 2501.90 1666.30 L 2467.00 1701.50 L 2430.60 1734.90 L 2392.40 1766.40 L 2352.70 1795.90 L 2311.60 1823.30 L 2269.00 1848.60 L 2257.10 1854.60 L 2244.30 1858.30 L 2234.80 1858.10 L 2225.80 1855.80 L 2217.60 1851.40 L 2210.60 1845.10 L 2191.40 1829.20 L 2171.10 1815.50 L 2149.60 1804.00 L 2127.10 1794.60 L 2103.90 1787.60 L 2080.00 1782.90 L 2055.70 1780.60 L 2031.30 1780.70 L 2006.40 1783.30 L 1976.40 1789.60 L 1947.70 1798.40 L 1920.00 1809.70 L 1893.30 1823.70 L 1868.00 1840.10 L 1844.60 1858.60 L 1822.70 1879.30 L 1802.60 1902.30 L 1794.70 1912.00 L 1785.20 1919.80 L 1774.50 1925.80 L 1762.60 1929.60 L 1749.90 1929.70 L 1737.40 1927.20 L 1695.50 1914.40 L 1654.80 1898.90 L 1615.30 1880.70 L 1577.10 1859.70 L 1540.40 1836.20 L 1505.30 1810.00 L 1494.60 1797.40 L 1485.80 1783.30 L 1493.70 1745.60 L 1498.60 1709.90 L 1500.80 1676.10 L 1500.50 1644.00 L 1497.20 1611.80 L 1490.90 1580.50 L 1481.50 1550.20 L 1469.00 1520.60 L 1452.40 1489.90 L 1433.90 1463.20 L 1413.50 1440.10 L 1391.30 1420.30 L 1371.80 1406.60 L 1350.80 1395.10 L 1328.10 1385.70 L 1303.40 1378.50 L 1264.40 1371.00 L 1254.70 1366.90 L 1247.10 1361.60 L 1241.40 1354.50 L 1237.60 1344.80 L 1236.10 1331.50 L 1234.40 1175.30 L 1235.00 1019.10 L 1236.50 1013.50 L 1241.00 1006.20 L 1247.30 999.40 L 1254.80 992.80 L 1262.90 987.00 L 1270.00 983.20 L 1301.50 967.50 L 1330.40 950.20 L 1356.80 931.40 L 1380.70 910.80 L 1402.50 888.60 L 1422.20 864.70 L 1443.00 834.00 L 1460.90 800.90 L 1476.00 765.20 L 1488.30 726.60 L 1497.50 684.90 L 1500.90 656.70 L 1501.60 628.10 L 1500.00 599.40 L 1496.80 570.70 L 1485.50 499.80 L 1485.30 487.50 L 1486.70 477.00 L 1490.20 467.30 L 1496.90 457.60 L 1507.10 447.80 L 1729.10 272.10 L 1739.40 265.30 L 1751.10 261.20 L 1760.30 261.80 L 1768.80 264.70 L 1776.40 269.50 L 1802.50 296.70 L 1823.90 314.60 L 1847.20 329.90 L 1872.00 342.50 L 1897.80 352.20 L 1924.70 359.10 L 1952.30 363.00 L 1980.20 363.80 L 2008.70 361.40 L 2038.90 355.40 L 2068.80 345.90 L 2098.60 332.70 L 2128.60 315.60 L 2156.20 296.00 L 2183.00 272.70 L 2209.00 245.60 L 2234.20 214.20 L 2239.80 206.30 L 2246.70 199.90 L 2254.80 194.90 L 2263.90 191.60 L 2274.30 191.80 L 2284.50 194.20 L 2327.10 208.80 L 2368.40 226.20 L 2408.50 246.20 L 2447.20 268.70 L 2484.30 293.70 L 2519.90 321.30 L 2528.10 330.20 L 2531.90 338.70 L 2532.90 347.70 L 2531.70 357.30 L 2526.30 377.30 L 2519.50 406.80 L 2515.10 435.90 L 2512.90 464.60 L 2513.10 493.10 L 2515.50 521.50 L 2519.90 549.00 L 2526.40 575.50 L 2534.90 601.10 L 2545.60 626.10 L 2558.00 649.30 L 2572.20 671.10 L 2588.20 691.40 L 2606.10 710.10 L 2625.50 726.70 L 2646.60 741.20 L 2669.40 753.80 L 2686.80 760.30 L 2724.00 769.40 L 2742.00 775.20 L 2751.60 780.10 L 2761.30 786.50 L 2769.10 794.40 L 2772.70 802.70 Z M 2005.00 1431.50 L 2033.50 1426.20 L 2061.00 1418.60 L 2087.70 1408.90 L 2113.50 1397.00 L 2146.50 1378.00 L 2177.40 1355.80 L 2206.50 1330.40 L 2233.20 1302.30 L 2257.30 1271.80 L 2279.10 1238.60 L 2297.80 1203.60 L 2313.50 1166.90 L 2326.20 1128.10 L 2335.40 1088.50 L 2341.00 1047.80 L 2343.00 1005.80 L 2340.20 967.80 L 2334.30 932.80 L 2325.60 900.50 L 2314.30 870.70 L 2299.70 841.80 L 2282.90 815.70 L 2263.90 792.00 L 2242.40 770.60 L 2218.70 751.60 L 2193.20 735.10 L 2165.60 721.10 L 2135.80 709.60 L 2105.30 701.00 L 2073.10 695.10 L 2039.10 691.90 L 2003.00 691.70 L 1993.90 692.80 L 1966.20 698.10 L 1939.20 705.60 L 1913.00 715.40 L 1887.30 727.60 L 1854.80 746.80 L 1824.10 769.10 L 1795.10 794.90 L 1768.50 823.10 L 1744.40 853.60 L 1722.70 886.40 L 1703.90 921.00 L 1688.20 956.80 L 1675.60 993.90 L 1666.50 1031.90 L 1661.10 1070.30 L 1659.40 1109.00 L 1661.60 1147.90 L 1667.10 1184.20 L 1675.60 1218.20 L 1687.10 1250.10 L 1702.00 1281.00 L 1719.20 1309.10 L 1738.80 1334.50 L 1760.80 1357.60 L 1785.30 1378.20 L 1811.60 1395.50 L 1839.80 1410.00 L 1870.10 1421.40 L 1901.30 1429.40 L 1933.90 1433.80 L 1968.30 1434.50 L 2004.60 1431.50" fill="url(#paint30_linear_400_12)" fill-rule="nonzero" node-id="523" stroke="none" target-height="1738.1" target-width="1549.6" target-x="1234.4" target-y="191.6"></path><path d="M 1269.00 1683.10 L 2303.50 1649.90 L 3804.20 1882.90 L 2336.80 2686.90 L 1269.00 1683.10 Z" fill="url(#paint31_linear_400_12)" fill-opacity="0.3" fill-rule="nonzero" node-id="525" stroke="none" target-height="1036.9999" target-width="2535.2" target-x="1269" target-y="1649.9"></path><path d="M 2833.30 1900.90 L 2831.10 1900.50 L 2828.90 1900.80 L 2826.90 1901.60 L 2820.10 1907.70 L 2814.70 1911.80 L 2809.00 1915.50 L 2803.00 1918.60 L 2796.70 1921.10 L 2790.20 1923.10 L 2783.50 1924.50 L 2776.70 1925.20 L 2769.70 1925.40 L 2764.50 1925.00 L 2759.30 1924.30 L 2748.70 1921.70 L 2743.20 1919.60 L 2738.00 1917.20 L 2733.00 1914.50 L 2728.40 1911.40 L 2723.90 1908.00 L 2719.80 1904.30 L 2712.60 1896.10 L 2706.60 1886.90 L 2704.10 1882.10 L 2702.00 1877.00 L 2701.30 1874.20 L 2701.10 1871.70 L 2701.50 1869.30 L 2702.40 1867.10 L 2703.70 1865.20 L 2705.40 1863.50 L 2709.60 1861.00 L 2714.70 1860.00 L 2717.40 1860.20 L 2720.20 1860.90 L 2739.70 1867.20 L 2743.10 1868.10 L 2746.50 1868.50 L 2749.80 1868.40 L 2753.10 1867.90 L 2756.20 1867.00 L 2759.20 1865.70 L 2762.00 1864.00 L 2764.60 1862.00 L 2768.90 1857.00 L 2771.90 1850.90 L 2772.80 1847.40 L 2773.20 1844.10 L 2773.10 1840.80 L 2771.70 1834.40 L 2770.40 1831.40 L 2768.80 1828.50 L 2766.80 1826.00 L 2764.40 1823.60 L 2761.80 1821.60 L 2758.80 1820.00 L 2755.60 1818.60 L 2735.90 1812.20 L 2733.30 1811.10 L 2731.00 1809.70 L 2729.00 1807.90 L 2727.40 1805.90 L 2726.20 1803.70 L 2725.40 1801.40 L 2725.10 1799.00 L 2725.20 1796.70 L 2725.80 1794.40 L 2728.40 1790.30 L 2730.70 1788.50 L 2735.40 1785.60 L 2740.20 1783.10 L 2745.30 1781.00 L 2750.50 1779.20 L 2755.80 1777.80 L 2761.20 1776.80 L 2766.70 1776.20 L 2772.40 1776.10 L 2778.00 1776.30 L 2783.60 1777.00 L 2789.30 1778.10 L 2795.00 1779.80 L 2805.10 1783.90 L 2814.20 1789.20 L 2819.70 1793.40 L 2824.80 1798.10 L 2829.40 1803.10 L 2833.50 1808.60 L 2837.00 1814.40 L 2840.10 1820.50 L 2842.60 1826.80 L 2844.50 1833.30 L 2846.40 1842.30 L 2847.50 1844.10 L 2849.10 1845.60 L 2851.10 1846.60 L 2957.10 1881.20 L 2960.80 1882.70 L 2964.00 1884.50 L 2967.00 1886.80 L 2969.60 1889.40 L 2971.90 1892.30 L 2973.70 1895.40 L 2975.20 1898.80 L 2976.20 1902.30 L 2976.70 1905.90 L 2976.80 1909.60 L 2976.40 1913.40 L 2975.40 1917.20 L 2972.10 1924.10 L 2969.80 1927.00 L 2967.20 1929.70 L 2961.20 1933.80 L 2957.90 1935.20 L 2954.40 1936.20 L 2950.70 1936.80 L 2947.00 1936.90 L 2943.30 1936.40 L 2939.40 1935.50 L 2833.30 1900.90 Z" fill="url(#paint32_linear_400_12)" fill-rule="nonzero" node-id="527" stroke="none" target-height="160.80005" target-width="275.69995" target-x="2701.1" target-y="1776.1"></path></svg>